<svg xmlns="http://www.w3.org/2000/svg" viewBox="0 0 148 193.458"><title>Asset 2</title><g id="Layer_2" data-name="Layer 2"><g id="Layer_1-2" data-name="Layer 1"><g id="_7rZVjN" data-name="7rZVjN"><path d="M0,124.941v-25A245.129,245.129,0,0,0,.954,73.632C.715,60.638,5.983,53.587,18.4,51.652a29.223,29.223,0,0,1,3.419-.722c7.378-.237,7.478.027,8.654-8.541A65.663,65.663,0,0,1,40.13,15.264C45.676,6.762,53.69.5,64.705.513,75.189.523,85.875-1,96.119,1.159c16.3,3.435,29.765,11.478,36.383,27.938a9.99,9.99,0,0,0,3.062,4.472A31.7,31.7,0,0,1,148,54.941v12a30.182,30.182,0,0,1-5.275,12.617c-2.5,3.417-1.818,7.848-.942,11.614,3.488,15.008.811,29.707-1.5,44.466-1.357,8.674-2.975,17.307-4.029,26.03-.684,5.654-2.01,11.111-5.313,15.9-2.91,4.938-7.354,6.9-12.941,6.8-3.482-.065-6.966,0-10.449,0-10.08-.008-12.639-1.719-16.5-10.994a32.857,32.857,0,0,1-2.489-13c.01-2.075-.4-4.3-3.05-4.173-2.684.13-2.008,2.6-2.075,4.244-.183,4.593.29,9.227-1.022,13.74A23.254,23.254,0,0,1,61.842,193.18c-8.709,1.044-16.915-.926-24.625-4.679-4.1-2-6.017-6.017-6.546-10.571-.1-6.133-1.219-12.19-1.382-18.325-.093-3.509-1.786-5.719-5.631-5.229C11.436,155.933,2.472,146.35,1,133.714.654,130.791.983,127.787,0,124.941Z" style="fill:#010000"/><path d="M48.825,22.872c5.913-7.413,12.672-12.952,23.1-11.51a79.2,79.2,0,0,0,11.949.426c11.248-.161,20.785,3.672,28.514,11.874.857.91,2.556,1.669,1.919,3.143-.581,1.345-2.3,1.143-3.6,1.129-8.805-.089-17.627-.768-26.367.958-3.744.739-7.6,1.122-11.216,2.26-6.054,1.905-10.2,6.409-10.8,12.531-1.129,11.59-1.233,23.15,5.136,33.861C70.225,82.2,74.2,84.71,78.623,86.923c10.611,5.3,21.645,3.965,32.656,1.644a96.938,96.938,0,0,0,13.955-3.608c4.692-1.75,5.118.393,4.746,4.028-.353,6.933-.873,13.786-2.654,20.6-3.711,14.191-9.766,18.886-24.1,21.127-12.328,1.925-23.9-1.092-35.579-3.2-6.709-1.214-10.272-7.735-12.835-13.647-4.786-11.035-7.1-22.7-8.644-34.7C44.86,69,45.1,58.908,44.425,48.805,43.814,39.687,47.294,31.5,48.825,22.872Z" style="fill:#c01701;fill-rule:evenodd"/><path d="M48.825,22.872A32.045,32.045,0,0,1,46.74,36.505a14.787,14.787,0,0,0-.748,4.382A224.6,224.6,0,0,0,48.305,86.07c1.559,10.051,3.588,20.4,8.738,29.294,3.545,6.126,7.837,12.11,17.058,11.867,6.965-.184,13.81,3.751,21.075,2.643,5.689-.868,11.517-.32,17.111-2.454,6.095-2.325,9.775-6.521,11.823-12.472a103.456,103.456,0,0,0,4.879-22.761c.122-1.142-.089-2.365.991-3.2,2.737,21.717.531,43-5.466,63.979-1.164,4.072-.27,8.281-.364,12.425-.158,6.985-1.13,8.075-7.888,8.728-1.981.19-3.952.574-5.935.634-7.669.228-10.584-2.448-10.278-10.22.213-5.429.24-11.148,7.489-13.06,3.023-.8,5.541-3.323,8.736-6.642a117.991,117.991,0,0,1-15.936,1.122,88.924,88.924,0,0,1-17.3-1.747,15.683,15.683,0,0,0-6.941-.037c-2.395.612-3.959,1.856-4.291,4.744a126.333,126.333,0,0,0-.9,18.382c.268,8.618-4.858,13.977-13.628,14.525-4.625.289-8.839-1.116-12.989-2.946-1.642-.725-1.955-1.929-2.163-3.537-4.185-32.4-4.4-64.949-4.033-97.545a172.526,172.526,0,0,1,5.439-41.656C44.715,31.564,47.026,27.285,48.825,22.872Z" style="fill:#770a39;fill-rule:evenodd"/><path d="M27.881,74.85c.062,16.971.079,33.943.225,50.913.03,3.472.635,6.936.813,10.413.338,6.574-3.238,8.863-9.407,5.974-4.779-2.238-7.019-5.5-7.9-11.347-2.726-18-.365-35.786.552-53.65.023-.441.447-.861.684-1.291,2.494.15,4.769-.767,7.115-1.395C22.614,73.755,25.329,72.948,27.881,74.85Z" style="fill:#760b39;fill-rule:evenodd"/><path d="M138.066,55.892c1.7,6.417-1.274,13.284-8.365,16.726-12.166,5.905-24.965,9.2-38.606,6.071C84.35,77.142,79,73,74.647,67.916c-5.453-6.364-3.736-21.757,2.528-26.789,2.21,1.123,2.522,3.355,3.131,5.4,3.635,12.224,8.778,16.1,21.6,16.035,8.458-.046,16.832-1.2,25.215-2.194C131.209,59.884,134.406,57.348,138.066,55.892Z" style="fill:#4a646e;fill-rule:evenodd"/><path d="M138.066,55.892c-2.456,4.527-7.09,5.523-11.4,6.035a211.344,211.344,0,0,1-27.279,1.926c-10.7-.121-16.957-4.793-19.877-15.121-.721-2.552-1.553-5.071-2.335-7.6,10.026-2.064,19.966-5.047,30.337-4.276,7.613.567,15.032,2.412,21.581,6.541C133.684,46.287,137.172,50.222,138.066,55.892Z" style="fill:#98c7dc;fill-rule:evenodd"/><path d="M27.881,74.85a29.412,29.412,0,0,0-11.2,1.976c-1.3.5-3.229,1.947-3.837-.965.224-1.633.383-3.279.684-4.9,1.339-7.183,6.745-10.308,13.681-8.092,1.833.585,1.6,1.828,1.494,3.119C28.46,68.946,28.159,71.9,27.881,74.85Z" style="fill:#bd1804;fill-rule:evenodd"/><path d="M117.694,52.938c-4.932-.545-11.313-1.336-17.714-1.922-3.355-.307-4.048-2.486-4.054-5.17a5.216,5.216,0,0,1,4.77-5.409c7.692-1.237,15.081.765,22.427,2.7a7.457,7.457,0,0,1,4.084,2.735c1,1.339,2.15,2.743,1.367,4.519a4.125,4.125,0,0,1-4.412,2.567C122.506,52.845,120.836,52.938,117.694,52.938Z" style="fill:#fbfdfc;fill-rule:evenodd"/></g></g></g></svg>