<svg xmlns="http://www.w3.org/2000/svg" viewBox="0 0 148 193.532"><title>Asset 3</title><g id="Layer_2" data-name="Layer 2"><g id="Layer_1-2" data-name="Layer 1"><g id="Ek1z1K"><path d="M0,124.941v-25A245.12,245.12,0,0,0,.954,73.633C.716,60.64,5.983,53.588,18.405,51.652a29.175,29.175,0,0,1,3.419-.721c7.381-.235,7.479.021,8.653-8.541a65.636,65.636,0,0,1,9.654-27.124C45.676,6.763,53.691.5,64.705.513,75.188.523,85.875-1,96.119,1.159,112.414,4.6,125.884,12.637,132.5,29.1a9.993,9.993,0,0,0,3.061,4.471A31.7,31.7,0,0,1,148,54.941v12a30.2,30.2,0,0,1-5.276,12.617c-2.5,3.417-1.818,7.848-.943,11.614,3.489,15.008.813,29.707-1.5,44.465-1.357,8.675-2.976,17.308-4.03,26.03-.684,5.654-2.009,11.111-5.312,15.9-2.911,4.938-7.355,6.9-12.941,6.8-3.482-.063-6.967,0-10.449,0-10.08-.008-12.639-1.717-16.5-10.994a32.876,32.876,0,0,1-2.488-13c.011-2.075-.4-4.3-3.053-4.172-2.683.133-2.006,2.6-2.073,4.247-.183,4.593.288,9.228-1.023,13.741-1.8,9.916-8.7,16.8-19.113,18.733-9.371,1.741-18.246-.4-26.5-4.67-3.818-1.975-5.675-5.928-6.125-10.32-.1-6.134-1.219-12.192-1.382-18.327-.093-3.507-1.781-5.722-5.629-5.232C11.435,155.936,2.473,146.348,1,133.715.654,130.792.983,127.788,0,124.941Z" style="fill:#000001"/><path d="M54.914,16.876c4.33-4.463,9.6-6.156,15.766-5.673,5.138.4,10.3.537,15.456.675A36.271,36.271,0,0,1,112.6,23.87c.773.826,2.2,1.556,1.8,2.781-.5,1.512-2.195,1.3-3.468,1.279-9.649-.157-19.314-.781-28.865,1.273-3.247.7-6.651.992-9.711,2.173-5.475,2.115-9.455,6.366-10.01,12.132C61.2,55.293,61.045,67.039,67.65,77.849c2.813,4.6,6.86,7.032,11.329,9.223,10.7,5.244,21.71,3.689,32.724,1.365,4.388-.925,8.893-1.635,13.051-3.214,4.277-1.626,5.93-.958,5.207,3.736-.682,5.881-.3,11.815-1.819,17.678-4.742,18.254-11.118,23.457-29.8,24.764-10.84.759-21.1-2.241-31.511-4.046-5.971-1.035-8.68-7.071-11.161-11.994-5.5-10.922-7.889-22.7-9.426-34.886-1.4-11.124-1.272-22.192-1.792-33.294-.393-8.4,2.62-15.984,4.424-23.846C49.525,20.512,52.648,18.822,54.914,16.876Z" style="fill:#1125da;fill-rule:evenodd"/><path d="M54.914,16.876c-8.045,7.487-7.949,17.759-8.84,27.432-1.3,14.113.006,28.3,2.215,42.2,2.143,13.486,5.277,27.01,15.19,37.614a5.523,5.523,0,0,0,3.72,2.028c10.34.987,20.347,5.114,30.906,3.7,4.866-.652,9.813-.578,14.591-2.573a19.941,19.941,0,0,0,11.261-11.856c2.919-7.458,4.25-15.316,5.037-23.263.113-1.142-.129-2.367.967-3.2a164.584,164.584,0,0,1-1.328,45.606c-1.8,10.852-6.373,21.372-4.7,32.827.514,3.507-1.5,6.117-5.685,6.836a57.864,57.864,0,0,1-12.438.449c-5.22-.225-4.457-5.122-5.635-8.249-1.154-3.06.9-6.178.829-9.338-.1-4.368,4.148-3.587,6.3-5.251,2.444-1.884,5.593-2.866,7.451-5.834-2.665-2.058-5.2-.08-7.679-.084-8.152-.009-16.274.046-24.322-1.727-7.288-1.605-9.661.34-11.057,7.518A59.133,59.133,0,0,0,70.85,167c.564,8.728-4.461,14.09-13.315,14.755a24.813,24.813,0,0,1-9.8-1.44c-3.859-1.291-5.174-3.7-5.906-8-1.789-10.506-.724-21.263-3.33-31.641a18.676,18.676,0,0,1-.336-4.463c-.017-19.329.334-38.665-.117-57.984-.348-14.912,2.072-29.418,6.127-43.509C46.02,28.284,46.756,20.009,54.914,16.876Z" style="fill:#070b93;fill-rule:evenodd"/><path d="M27.865,74.932q.061,22.2.131,44.407a148.991,148.991,0,0,0,.858,16.905c.779,6.563-1.629,8.281-8.034,6.428-5.915-1.712-8.434-5.131-8.9-11.452-.532-7.274-2.165-14.476-1.817-21.8.521-10.939,1.28-21.866,1.99-32.794.038-.59.556-1.148.851-1.721,3.08,1.694,6.066-.474,9.113-.222C23.992,74.841,25.962,74.088,27.865,74.932Z" style="fill:#070c91;fill-rule:evenodd"/><path d="M138.062,55.9c1.7,6.429-1.257,13.3-8.368,16.718-12,5.766-24.606,9.151-38.1,6.19C84.461,77.238,78.8,73.006,74.38,67.52c-5.279-6.549-3.4-21.4,2.778-26.376,2.318,1.722,2.8,4.387,3.575,6.912,3.176,10.291,8.9,14.364,19.748,14.572,7.144.137,14.173-1.087,21.289-1.3C127.626,61.15,132.988,58.783,138.062,55.9Z" style="fill:#4a646e;fill-rule:evenodd"/><path d="M138.062,55.9c-2.457,4.524-7.087,5.466-11.4,6.053a184.514,184.514,0,0,1-30.269,1.858c-7.3-.212-13.869-5.544-16.336-13.164-1.019-3.149-1.937-6.331-2.9-9.5,10.025-2.1,19.975-5.084,30.344-4.286,7.768.6,15.355,2.452,22,6.816C133.9,46.569,137.2,50.427,138.062,55.9Z" style="fill:#98c7dc;fill-rule:evenodd"/><path d="M27.865,74.932c-4.111,1.923-8.835.319-13.016,2.42-2.088,1.047-1.442-1.452-1.9-2.448.24-1.3.5-2.595.719-3.9,1.228-7.169,6.765-10.435,13.572-8.136,1.836.619,1.543,1.893,1.443,3.169C28.448,69.007,28.142,71.968,27.865,74.932Z" style="fill:#1225d5;fill-rule:evenodd"/><path d="M121.351,52.984c-7.179-.693-14.25-1.359-21.316-2.064a4.1,4.1,0,0,1-3.99-3.764c-.331-2.511.483-4.625,2.931-5.743a15.846,15.846,0,0,1,9.245-1.222,128.217,128.217,0,0,1,14.517,3.171c3.033.878,6.028,2.441,5.293,6.621C127.26,54.372,123.723,52.449,121.351,52.984Z" style="fill:#fbfdfd;fill-rule:evenodd"/></g></g></g></svg>