<svg xmlns="http://www.w3.org/2000/svg" viewBox="0 0 149.112 192.699"><title>Asset 8</title><g id="Layer_2" data-name="Layer 2"><g id="Layer_1-2" data-name="Layer 1"><g id="OmESqR"><path d="M85,0h9c13.922,2.027,25.886,8.078,33.787,19.715,4.894,7.211,10.285,14.039,15.1,21.215,7.877,11.748,8.649,24.514.208,36.819-2.721,3.968-2.26,8.48-1.336,12.548,3.535,15.562.523,30.723-1.811,46.006-1.2,7.874-2.826,15.684-3.652,23.616-.627,6.021-2,11.8-5.494,16.9-2.94,4.919-7.439,6.72-12.968,6.608-3.464-.07-6.932,0-10.4-.006-9.986-.01-12.519-1.717-16.388-11.008a32.838,32.838,0,0,1-2.483-12.992c.01-2.076-.41-4.3-3.062-4.159-2.674.141-2,2.608-2.063,4.255-.184,4.59.286,9.223-1.024,13.736-.374,12.1-10.664,16.568-19.122,18.612-9.251,2.236-18.225-.279-26.487-4.549-3.822-1.974-5.679-5.928-6.132-10.323-.1-6.134-1.191-12.192-1.4-18.326-.095-2.8-1.006-5.5-4.615-5.185-7.07.618-13.2-1.35-17.951-6.619C1.876,141.51,1.26,134.613.513,127.838.372,126.555.924,125.178,0,124V99c.765-8.74.974-17.5,1-26.27C1.035,58.759,4.61,52.954,18.352,51.1c9.467-1.281,12.274-5.42,13.065-13.961.807-8.707,4.5-16.923,9.374-23.976C45.381,6.512,51.972,1.367,60.753.516,68.836.2,76.94,1.153,85,0Z" style="fill:#000100"/><path d="M59.914.959A1.152,1.152,0,0,0,60,0H85c-3.727,2.1-7.758.722-11.638.936C68.893,1.182,64.4.971,59.914.959Z" style="fill:#232323;fill-rule:evenodd"/><path d="M48.836,21.9C54.141,15.2,60.143,9.667,69.548,10.553c10,.94,20.25-1.255,30,3.168a42.313,42.313,0,0,1,16.686,13.308c-3.644,0-6.392.186-9.109-.031A100.61,100.61,0,0,0,73.567,30.13c-6.218,1.618-10.381,6.116-11.144,12.188-1.413,11.264-1.34,22.54,4.421,33.03,5.9,10.738,16.07,13.4,26.9,14.062,10.382.631,20.474-2.175,30.435-4.842,6.025-1.614,5.943-1.92,5.733,4.463.256,8.373-1.5,16.391-3.983,24.34-3.117,9.961-10.224,14.3-20.049,16.213-13.206,2.564-25.789-.988-38.511-2.961-6.161-.955-9.008-6.827-11.466-11.689-5.507-10.892-8.015-22.686-9.614-34.852A261.329,261.329,0,0,1,44.52,48.77c-.081-7.21.321-14.269,3.232-21.018C48.528,25.952,48.373,23.838,48.836,21.9Z" style="fill:#53fdd7;fill-rule:evenodd"/><path d="M48.836,21.9a25.935,25.935,0,0,1-.679,8.383c-3.632,15.435-2.532,30.869-.642,46.476a210.933,210.933,0,0,0,4.4,24.322,53.723,53.723,0,0,0,12.193,22.968,4.116,4.116,0,0,0,3.152,1.154c10.017.887,19.675,4.785,29.9,3.754,5.558-.561,11.129-.738,16.495-3.061a17.684,17.684,0,0,0,10.161-10.928c2.63-7.517,4.721-15.2,5.2-23.215.059-.993-.013-2.019.9-2.724,1.81,13.4,1.246,26.683-.414,40.135-1.476,11.973-6.668,23.3-5.337,35.793.695,6.527-1.465,7.943-8.212,8.452-1.989.15-3.991.181-5.988.187-7.738.025-9.709-1.645-9.99-9.375-.119-3.272.74-6.574,1.1-9.868.183-1.7,1.675-1.32,2.626-1.753a34.506,34.506,0,0,0,11.657-8.275c-9.744.717-19.109,1.335-28.4-.327-16.679-2.984-14.883.325-16.145,13.886a63.312,63.312,0,0,0,.087,7.969c.3,8.815-3.811,13.812-12.54,14.868a22.51,22.51,0,0,1-8.415-.551c-4.842-1.258-7.24-3.245-8.042-9.154-4.3-31.629-3.647-63.356-3.683-95.12C38.2,61.8,40.45,48.18,43.579,34.625,44.6,30.215,47.043,26.133,48.836,21.9Z" style="fill:#35a7c0;fill-rule:evenodd"/><path d="M27.867,74.035c-.322,16.965-.5,33.93.292,50.887.154,3.319.531,6.628.752,9.944.453,6.818-2.556,9.22-8.859,6.575-4.495-1.885-7.563-4.586-8.339-10.5-2.379-18.168-.833-36.186.411-54.255a6.481,6.481,0,0,1,.713-1.8C17.835,74.4,22.772,72.814,27.867,74.035Z" style="fill:#35a7c0;fill-rule:evenodd"/><path d="M138.05,54.963c1.727,6.4-1.248,13.27-8.356,16.715-12,5.82-24.594,9.047-38.115,6.2-14.044-2.961-23.19-16.9-19.586-30.12.838-3.071,2.089-5.983,5.179-7.573,2.21,1.123,2.524,3.354,3.132,5.4,3.635,12.225,8.784,15.981,21.6,16.092,6.483.057,12.857-1.1,19.317-1.324C127.255,60.135,132.818,57.945,138.05,54.963Z" style="fill:#4a646e;fill-rule:evenodd"/><path d="M138.05,54.963c-2.448,4.539-7.089,5.478-11.4,6.037a200.259,200.259,0,0,1-27.277,1.9c-10.7-.083-16.968-4.8-19.876-15.116-.719-2.551-1.549-5.069-2.328-7.6,10.03-2.059,19.973-5.034,30.347-4.276,7.619.558,15.028,2.448,21.579,6.561C133.689,45.35,137.192,49.276,138.05,54.963Z" style="fill:#98c7dc;fill-rule:evenodd"/><path d="M27.867,74.035c-4.39,1.826-9.449.02-13.763,2.577-.742.441-.922-1.059-1.267-1.731.118-1.154.176-2.318.362-3.461,1.443-8.846,5.364-11.454,14.145-9.736,1.821.357,1.547,1.369,1.458,2.455C28.531,67.441,28.184,70.736,27.867,74.035Z" style="fill:#54f9d6;fill-rule:evenodd"/><path d="M118.373,51.994c-5.472,1.039-10.609-1.9-16.14-1.292-3.133.345-6.786-1.028-6.83-4.936-.045-3.836,2.55-5.922,6.642-6.393,7.021-.807,13.661.93,20.34,2.473a10.475,10.475,0,0,1,5.348,3.5,3.959,3.959,0,0,1,.664,4.595,3.238,3.238,0,0,1-3.545,2.072C122.7,51.93,120.533,51.994,118.373,51.994Z" style="fill:#f9fdfc;fill-rule:evenodd"/></g></g></g></svg>