<svg xmlns="http://www.w3.org/2000/svg" viewBox="0 0 148 193.531"><title>Asset 4</title><g id="Layer_2" data-name="Layer 2"><g id="Layer_1-2" data-name="Layer 1"><g id="_0e49uk" data-name="0e49uk"><path d="M0,124.942v-25A245.138,245.138,0,0,0,.953,73.633c-.236-12.992,5.03-20.045,17.453-21.98a28.8,28.8,0,0,1,3.418-.721c7.385-.233,7.48.014,8.654-8.541a65.654,65.654,0,0,1,9.653-27.124C45.677,6.764,53.691.5,64.705.513,75.188.523,85.874-1,96.119,1.159,112.412,4.6,125.884,12.637,132.5,29.1a9.992,9.992,0,0,0,3.063,4.472A31.7,31.7,0,0,1,148,54.942v12a30.166,30.166,0,0,1-5.277,12.615c-2.5,3.418-1.817,7.849-.942,11.615,3.489,15.008.812,29.707-1.5,44.465-1.356,8.674-2.975,17.308-4.03,26.029-.684,5.654-2.009,11.112-5.312,15.9-2.91,4.938-7.354,6.9-12.941,6.8-3.481-.064-6.966,0-10.448,0-10.08-.007-12.637-1.716-16.5-10.994a32.861,32.861,0,0,1-2.487-13c.009-2.076-.4-4.3-3.055-4.172-2.684.131-2.007,2.6-2.072,4.246-.186,4.594.287,9.229-1.024,13.743-1.8,9.916-8.7,16.8-19.113,18.732-9.371,1.74-18.246-.4-26.5-4.67-3.817-1.975-5.674-5.928-6.125-10.32-.1-6.134-1.191-12.193-1.4-18.326-.095-2.8-1.006-5.5-4.615-5.186-7.07.619-13.2-1.348-17.951-6.617-4.83-5.354-5.447-12.25-6.193-19.026C.371,127.5.924,126.119,0,124.942Z" style="fill:#000100"/><path d="M48.887,22.851a23.76,23.76,0,0,1,22.6-11.373,126.169,126.169,0,0,0,13.951.384c12.554-.008,22.186,5.61,30.729,16.067-3.767,0-6.655.123-9.531-.022a106.206,106.206,0,0,0-32.08,2.949c-7.454,1.921-12.266,7.633-12.529,15.321-.356,10.477-.557,20.8,4.962,30.491,5.135,9.014,13.541,11.843,22.653,13.252,11.9,1.841,23.341-1.683,34.744-4.425,5.686-1.367,5.6-1.745,5.588,4.443.222,8.715-1.715,17.033-4.364,25.274-2.758,8.581-9.084,13.13-17.309,14.8C99,131.91,89.516,132.577,80.155,129.7a17.843,17.843,0,0,0-5.889-.992c-10.265.467-15.121-6.381-19.112-14.137-5.4-10.5-7.906-21.813-8.653-33.552-.349-5.474-1.983-10.754-2.015-16.319C44.406,50.569,43.973,36.441,48.887,22.851Z" style="fill:#237f18;fill-rule:evenodd"/><path d="M48.887,22.851c.662,3.217-.362,6.3-.987,9.349-3.144,15.335-2.3,30.568-.276,45.992.906,6.894,2,13.7,3.284,20.521,1.867,9.91,6.627,18.232,12.91,25.9a5.02,5.02,0,0,0,3.968,1.652c9.865.733,19.3,4.723,29.405,3.708,5.923-.595,11.783-.854,17.315-3.675a18.138,18.138,0,0,0,9.519-10.919,97.161,97.161,0,0,0,5.03-23.239,7.7,7.7,0,0,1,.922-2.2c1.839,10.24.97,20.531.671,30.824-.455,15.611-7.511,30.221-6.692,46.058.294,5.692-1.574,7.051-7.15,7.186-2.5.061-5,.02-7.5.02-7.25,0-8.507-.793-9.136-7.774-.32-3.558.559-7.23.946-10.846.166-1.55,1.674-1.4,2.651-1.876a37.216,37.216,0,0,0,11.445-8.118c-4.846.782-9.649.434-14.444.552a71.465,71.465,0,0,1-17.783-1.756,17.891,17.891,0,0,0-6.454-.108c-2.612.386-4.245,1.707-4.706,4.851a116.008,116.008,0,0,0-.84,17.9c.08,9.912-7.767,16.547-17.74,14.94a49.351,49.351,0,0,1-4.835-1.18c-4.462-1.19-6.451-3.468-6.609-8.715a256.692,256.692,0,0,0-3.13-30.154c-.776-5.179-.51-10.29-.572-15.42-.165-13.495-.532-27.014.058-40.484.715-16.344.365-32.832,4.906-48.841C44.48,32.013,47.107,27.627,48.887,22.851Z" style="fill:#134d29;fill-rule:evenodd"/><path d="M27.855,75.856c.049,15.327.013,30.655.192,45.98.068,5.8.558,11.6,1,17.393.22,2.892-1,3.66-3.747,3.736-8.72.243-13.125-4.09-14.153-15.174A188.2,188.2,0,0,1,11.862,84.6c.4-2.916-.8-6.019,1.023-8.759,3.324.047,6.465-1.38,9.807-1.216C24.5,74.713,26.361,74.492,27.855,75.856Z" style="fill:#134c28;fill-rule:evenodd"/><path d="M138.055,55.9c1.724,6.374-1.384,13.41-8.345,16.732-11.87,5.666-24.257,8.907-37.638,6.283C77.793,76.115,68.336,62.108,72,48.7c.838-3.072,2.086-5.984,5.169-7.582,2.382,1.24,2.614,3.688,3.261,5.879,3.395,11.518,8.838,15.6,20.968,15.576,8.629-.018,17.164-1.2,25.713-2.2C131.2,59.893,134.4,57.363,138.055,55.9Z" style="fill:#4a646e;fill-rule:evenodd"/><path d="M138.055,55.9c-2.451,4.538-7.094,5.517-11.4,6.027-9.043,1.072-18.138,1.724-27.274,2.005a19.289,19.289,0,0,1-19.9-15.208c-.558-2.581-1.531-5.073-2.314-7.607,10.03-2.052,19.973-5.045,30.345-4.262,7.781.588,15.346,2.481,21.992,6.824C133.914,46.563,137.214,50.423,138.055,55.9Z" style="fill:#98c7dc;fill-rule:evenodd"/><path d="M27.855,75.856c-4.252.173-8.593-.419-12.644,1.488-1.557.732-2.068-.2-2.324-1.5.1-1.488.088-2.994.326-4.461,1.242-7.661,6.633-10.836,14.078-8.506,1.84.575,1.666,1.883,1.571,3.125C28.61,69.29,28.2,72.57,27.855,75.856Z" style="fill:#237d1a;fill-rule:evenodd"/><path d="M121.012,53.051c-7.08-.707-14.27-1.427-21.461-2.141-3.1-.308-3.578-2.591-3.616-5.013a5.141,5.141,0,0,1,4.715-5.447c8.189-1.069,16.075.827,23.78,3.4a5.1,5.1,0,0,1,3.609,6.286C127.189,54.449,123.6,52.393,121.012,53.051Z" style="fill:#fafdfd;fill-rule:evenodd"/></g></g></g></svg>