<svg xmlns="http://www.w3.org/2000/svg" viewBox="0 0 148.618 193.503"><title>Asset 7</title><g id="Layer_2" data-name="Layer 2"><g id="Layer_1-2" data-name="Layer 1"><g id="jJ595S"><path d="M148.618,54.913v12a30.178,30.178,0,0,1-5.275,12.616c-2.5,3.418-1.819,7.849-.943,11.614,3.489,15.009.812,29.707-1.5,44.465-1.357,8.674-2.975,17.309-4.029,26.03-.684,5.654-2.01,11.113-5.312,15.9-2.911,4.938-7.355,6.9-12.942,6.8-3.481-.062-6.966,0-10.449,0-10.08-.008-12.639-1.717-16.5-10.994a32.847,32.847,0,0,1-2.487-12.994c.009-2.074-.4-4.3-3.052-4.174-2.684.131-2.008,2.6-2.074,4.246-.185,4.592.289,9.227-1.023,13.738-1.8,9.916-8.677,16.784-19.091,18.731-9.365,1.752-18.23-.395-26.49-4.641-3.824-1.965-5.685-5.908-6.154-10.293-.082-6.158-1.193-12.24-1.385-18.4-.088-2.815-1.042-5.5-4.659-5.18-6.9.619-12.9-1.267-17.65-6.324-4.814-5.129-6.146-11.864-6.8-18.427C-.726,114.38.259,99.081,1.055,83.81c.19-3.661.1-7.322.181-10.983.249-10.7,4.576-19.1,16.5-20.907,1.311-.2,2.58-.658,3.889-.91,8.314-1.61,8.436-1.589,9.648-9.844,1.4-9.552,4.446-18.758,9.8-26.5C46.683,6.562,54.54.3,65.444.454c10.474.147,21.15-1.49,31.377.684,16.265,3.457,29.735,11.483,36.344,27.93a10.141,10.141,0,0,0,3.076,4.459A31.817,31.817,0,0,1,148.618,54.913Z" style="fill:#000100"/><path d="M87.683,28.059c-3.194.67-6.362,1.532-9.586,1.971-6.518.886-11.158,4.332-14.4,9.894-1.826,2.431-1.881,5.152-1.312,7.977.343,7.895.1,15.676,2.806,23.5C69.317,83.334,78.423,87.656,89.407,90c6.463,1.378,12.86.032,19.25-.861,3.078.507,5.891-.577,8.738-1.455l7.93-2.042c1.463.007,2.789-1.009,4.337-.62.831,1.594.275,3.283.441,4.9,1.25,8.69-1.243,16.8-3.781,24.927-2.714,8.685-8.779,13.609-17.479,15.256-9.4,1.778-18.84,2.218-28.219-.369a20.509,20.509,0,0,0-6.377-1.159c-8.95.492-13.8-5.151-17.414-11.967-5.686-10.706-8.5-22.309-9.732-34.374C46.29,74.3,45.55,66.36,44.7,58.444A66.813,66.813,0,0,1,48.249,28.49c.685-1.937.6-3.914,1.229-5.791,5.238-6.359,11.01-12.161,20.063-11.311,10.136.951,20.636-1.463,30.39,3.234,5.492,2.645,11.265,4.868,13.923,11.055-1.3,3.425-4.221.929-6.242,1.721C100.976,27.8,94.285,26.584,87.683,28.059Z" style="fill:#61ef00;fill-rule:evenodd"/><path d="M49.478,22.7c.5,6.6-2.208,12.677-3.144,19.05-1.591,10.831.1,21.5,1.2,32.168.9,8.688,1.732,17.428,4.208,25.895,2.431,8.313,5.279,16.357,11.229,22.966,1.591,1.768,2.988,3.419,5.558,3.619,10.2.8,20.016,4.725,30.481,3.568,4.773-.529,9.449-1,14.08-2.593a17.625,17.625,0,0,0,11.42-11.62c2.888-8.32,5.112-16.822,5.269-25.722q.287-.811.816-.134c1.777,13.911,1.118,27.679-.749,41.614-1.576,11.771-6.446,22.987-5.225,35.284.578,5.813-1.627,7.151-7.534,7.358-2.327.082-4.659.035-6.988.035-7.665,0-7.931-.219-9.39-7.662a14.52,14.52,0,0,1,6.707-14.633,65.221,65.221,0,0,0,7.443-4.988c2.373-1.864.09-1.666-1.018-1.9a133.69,133.69,0,0,1-22.54.024,55.553,55.553,0,0,1-6.443-.393c-9.914-1.723-10.822-1.191-13.192,8.309-1.232,4.843-.685,9.8-.43,14.644.238,4.531-.961,7.969-4.494,10.676a20.1,20.1,0,0,1-22.054.516,3.374,3.374,0,0,1-1.847-2.694,599.3,599.3,0,0,1-3.927-91.96c.28-7.956-.752-16.011.584-23.824,1.883-11.014,2.5-22.439,8.178-32.52C48.58,26.172,48.06,24.1,49.478,22.7Z" style="fill:#2da82a;fill-rule:evenodd"/><path d="M28.513,74.815c-.5,15.585-.629,31.171.119,46.751.23,4.8.675,9.6.931,14.4.366,6.811-3.269,9.09-9.611,6.094-4.653-2.2-7.377-5.171-7.594-10.99-.387-10.407-2.714-20.748-.754-31.22,1.452-4.985-.32-10.17.94-15.167.146-2.961-.567-6,.852-8.842C18.444,75.642,23.376,73.711,28.513,74.815Z" style="fill:#2da729;fill-rule:evenodd"/><path d="M138.687,55.863c1.7,6.42-1.266,13.306-8.37,16.721-12.005,5.772-24.619,9.143-38.111,6.188-7.135-1.562-12.8-5.8-17.21-11.3-5.286-6.585-3.405-21.382,2.792-26.381,2.211,1.123,2.526,3.354,3.135,5.4,3.637,12.229,8.782,15.981,21.606,16.093,6.486.056,12.861-1.1,19.324-1.328C127.894,61.048,133.452,58.844,138.687,55.863Z" style="fill:#4b646e;fill-rule:evenodd"/><path d="M138.687,55.863c-2.452,4.535-7.088,5.483-11.4,6.047A198.644,198.644,0,0,1,100,63.814c-10.715-.081-16.981-4.8-19.866-15.12-.714-2.553-1.562-5.069-2.349-7.6,10.029-2.052,19.967-5.036,30.34-4.274,7.617.56,15.023,2.437,21.58,6.546C134.311,46.251,137.773,50.2,138.687,55.863Z" style="fill:#98c7dc;fill-rule:evenodd"/><path d="M28.513,74.815c-4.253,1.917-9.151.488-13.413,2.532-.265.127-1.122-.978-1.7-1.509.222-1.787.3-3.606.692-5.357,1.472-6.623,7.673-9.918,14.153-7.772,1.731.573,1.223,1.775,1.158,2.762C29.2,68.592,28.821,71.7,28.513,74.815Z" style="fill:#61ec04;fill-rule:evenodd"/><path d="M66.741,178.261c4.5-4.246,3.883-9.742,3.949-15.191.039-3.368-1.185-6.944.975-10.129-.007,5.6-.3,11.226.071,16.806C72.019,173.988,70.612,176.714,66.741,178.261Z" style="fill:#3e9246;fill-rule:evenodd"/><path d="M91.3,145.025,113.839,145A57.859,57.859,0,0,1,91.3,145.025Z" style="fill:#448e4d;fill-rule:evenodd"/><path d="M87.683,28.059c4.318-2.415,9-.724,13.5-1.162a56.847,56.847,0,0,1,6.457.073c.318.182.422.358.312.532s-.217.258-.326.258Z" style="fill:#73d63c;fill-rule:evenodd"/><path d="M12.544,84.681c-.414,5.05,1.271,10.23-.94,15.168C11.731,94.781,11.087,89.666,12.544,84.681Z" style="fill:#40924c;fill-rule:evenodd"/><path d="M130.594,89.9c-.275.035-.547.079-.818.133.573-3.548-.931-4.991-4.451-4.386C130.753,82.927,130.753,82.927,130.594,89.9Z" style="fill:#6ed13a;fill-rule:evenodd"/><path d="M117.4,87.683c-2.708,1.716-5.49,2.982-8.737,1.455Z" style="fill:#74d741;fill-rule:evenodd"/><path d="M107.622,27.76q0-.4.014-.79c2.07-.437,4.5.822,6.217-1.294.821.009,1.736-.006,2.005.957.387,1.379-.8,1.08-1.464,1.128C112.14,27.926,109.878,28.381,107.622,27.76Z" style="fill:#78d34c;fill-rule:evenodd"/><path d="M62.382,47.9c-.933-2.884-1.944-5.782,1.312-7.977Q63.039,43.912,62.382,47.9Z" style="fill:#6edb2d;fill-rule:evenodd"/><path d="M119.478,52.911c-5.625.785-10.958-1.866-16.647-1.3-3.143.315-6.778-1.055-6.812-4.963-.034-3.849,2.617-5.906,6.668-6.369,7.015-.8,13.658.94,20.335,2.49a10.32,10.32,0,0,1,5,3.144,4.146,4.146,0,0,1,1,4.963c-.816,1.923-2.312,2.1-4.065,2.046C123.134,52.865,121.305,52.911,119.478,52.911Z" style="fill:#fafdfc;fill-rule:evenodd"/></g></g></g></svg>