<svg xmlns="http://www.w3.org/2000/svg" viewBox="0 0 148.565 192.59"><title>Asset 9</title><g id="Layer_2" data-name="Layer 2"><g id="Layer_1-2" data-name="Layer 1"><g id="_1yLTHb" data-name="1yLTHb"><path d="M148.565,54V66a30.2,30.2,0,0,1-5.276,12.617c-2.5,3.417-1.816,7.848-.941,11.614,3.488,15.008.81,29.707-1.5,44.465-1.358,8.675-2.975,17.308-4.03,26.031-.683,5.654-2.009,11.111-5.312,15.9-2.91,4.937-7.355,6.9-12.942,6.8-3.481-.065-6.965,0-10.449,0-10.08-.008-12.638-1.719-16.5-10.994a32.886,32.886,0,0,1-2.488-13c.01-2.076-.4-4.3-3.053-4.172-2.681.133-2.006,2.6-2.071,4.248-.185,4.593.287,9.226-1.024,13.74-1.8,9.92-8.727,16.82-19.141,18.736-9.381,1.727-18.268-.394-26.52-4.705-3.808-1.99-5.661-5.953-6.087-10.357-.157-6.149-1.174-12.231-1.418-18.379-.115-2.873-1.26-4.855-4.787-5.156C8.41,151.965,2.009,145.434.637,128.6c-1.244-15.266-.415-30.532.369-45.789.188-3.657.059-7.317.157-10.973C1.457,61,5.842,52.793,17.688,50.974c1.964-.3,3.89-1.3,5.852-1.152,5.323.4,6.866-2.613,7.335-7.177C31.664,34.96,34.581,27.9,37.2,20.687c3.2-8.837,9.749-14,17.259-18.51a12.694,12.694,0,0,1,6.7-1.661c8.138-.3,16.3.624,24.412-.516h9c13.846,2.132,25.888,8.121,33.65,19.774a227.439,227.439,0,0,0,15.547,21.395C146.829,44.783,147.576,49.489,148.565,54Z" style="fill:#010000"/><path d="M60.479.959A1.152,1.152,0,0,0,60.565,0h25c-3.728,2.094-7.759.723-11.639.936C69.457,1.182,64.963.971,60.479.959Z" style="fill:#232323;fill-rule:evenodd"/><path d="M49.4,21.891c5.444-6.837,11.651-12.514,21.208-11.444,9.668,1.083,19.622-1.122,29.054,3.085A40.506,40.506,0,0,1,116.188,26.34c-6.032,1.512-11.662.424-17.219.38a99.557,99.557,0,0,0-25.09,3.5A13.884,13.884,0,0,0,63.047,42.111c-1.428,11.266-1.359,22.48,4.215,33.088,4.946,9.418,13.619,12.408,22.905,13.9,11.777,1.9,23.12-1.751,34.408-4.486,6.165-1.492,6.068-1.9,5.928,4.4.172,8.183-1.5,16.033-3.813,23.857-2.768,9.367-9.054,14.482-18.3,16.252-8.706,1.666-17.45,2.369-26.157-.249a22.627,22.627,0,0,0-6.89-1.021c-11.3.256-16.36-7.3-20.377-16.06-4.764-10.386-6.415-21.52-8.151-32.738-1.564-10.118-1.569-20.18-1.726-30.309-.112-7.209.319-14.264,3.23-21.012C49.1,25.941,48.941,23.826,49.4,21.891Z" style="fill:#ea7f00;fill-rule:evenodd"/><path d="M49.4,21.891a25.567,25.567,0,0,1-.668,8.381c-3.613,15.428-2.693,30.875-.6,46.458,1.081,8.061,2.434,15.995,4.267,23.9,2.07,8.926,6.535,16.474,12.295,23.418.905,1.09,2.081,1.027,3.156,1.133,10.49,1.039,20.648,4.874,31.381,3.8a56.677,56.677,0,0,0,14.545-2.957c5.646-2.123,8.965-6.1,10.779-11.557,2.514-7.558,4.667-15.206,5.08-23.236a7.525,7.525,0,0,1,.872-2.213c1.819,14.1,1.14,28.039-.819,42.155-1.589,11.446-6.6,22.361-5.046,34.346.6,4.641-1.874,7.961-7.31,7.857-2.154-.041-4.314.312-6.472.324-7.769.046-11.291-4.37-10.268-12.186.666-5.08,1.688-9.3,7.519-11.056,2.854-.86,5.211-3.366,8.458-5.581-3.612-1.312-6.252.11-8.9.111-8.329,0-16.609-.076-24.838-1.808-7.039-1.484-9.3.59-10.642,7.566a66.142,66.142,0,0,0-.725,15.35c.35,8.851-4.851,14.36-13.876,14.692a24.708,24.708,0,0,1-5.933-.534c-7.992-1.679-7.888-2.18-9.1-10.165-4.686-30.93-3.78-62.044-3.823-93.155a174.762,174.762,0,0,1,5.5-42.26C45.32,30.256,47.641,26.143,49.4,21.891Z" style="fill:#b14100;fill-rule:evenodd"/><path d="M28.44,74.02c.07,16.957.076,33.914.255,50.869.047,4.472.572,8.945.986,13.407.23,2.48-.516,3.5-3.228,3.64-8.568.443-12.635-3.426-14.084-12.094-2.971-17.784-.64-35.459.281-53.176a5.9,5.9,0,0,1,.743-1.787C18.4,74.4,23.338,72.818,28.44,74.02Z" style="fill:#ae4001;fill-rule:evenodd"/><path d="M138.632,54.95c1.7,6.425-1.265,13.3-8.37,16.722-12,5.779-24.619,9.141-38.112,6.186-7.135-1.562-12.793-5.8-17.21-11.3-5.286-6.582-3.405-21.385,2.793-26.38,2.212,1.122,2.529,3.356,3.137,5.4,3.638,12.235,8.777,16.007,21.624,16.077,6.977.039,13.863-1.107,20.832-1.294C128.875,60.215,133.768,57.445,138.632,54.95Z" style="fill:#4b646e;fill-rule:evenodd"/><path d="M138.632,54.95c-3.317,5.343-9.013,6.034-14.334,6.611-8.068.875-16.222,1.127-24.345,1.279-10.679.2-17.052-4.806-19.893-15.054-.708-2.554-1.548-5.073-2.327-7.607A137.966,137.966,0,0,1,96.19,36.808c2.674-.251,2.2,1.833,2.5,3.344a19.7,19.7,0,0,1-.972,3.832c-.646,2.594.426,4.487,2.933,4.807,8.352,1.071,16.706,2.441,25.183,1.652a4.057,4.057,0,0,0,2.523-1.47c1.675-.965.285-5.026,3.966-3.963C136.025,47.307,137.854,50.8,138.632,54.95Z" style="fill:#98c7dc;fill-rule:evenodd"/><path d="M28.44,74.02c-4.379,1.892-9.457,0-13.768,2.58-.74.443-.96-1.03-1.279-1.721.15-1.307.243-2.623.461-3.918,1.407-8.357,5.565-11.017,13.887-9.2,2.055.447,1.663,1.743,1.583,2.933C29.111,67.809,28.744,70.912,28.44,74.02Z" style="fill:#e77e01;fill-rule:evenodd"/><path d="M97.56,41c-.095-1.514.419-3.227-1.37-4.188,13.218-2.444,25.461-.587,36.13,8.2-3.076.43-.656,4.028-2.86,4.962-1.931-4.445-5.333-6.464-10.06-7.748A57.363,57.363,0,0,0,97.56,41Z" style="fill:#9cc5cf;fill-rule:evenodd"/><path d="M97.56,41c6.377-3.147,13.025-2.09,19.421-.564,2.732.652,5.808.478,8.334,2.391,2.466,1.869,4.824,3.56,4.146,7.149-1.094.9-1.834,2.178-3.66,2.059-7.956-.52-15.967-.507-23.869-1.439C95.586,49.846,94.607,47.058,97.56,41Z" style="fill:#fbfdfd;fill-rule:evenodd"/></g></g></g></svg>