<svg xmlns="http://www.w3.org/2000/svg" viewBox="0 0 148.565 192.59"><title>Asset 6</title><g id="Layer_2" data-name="Layer 2"><g id="Layer_1-2" data-name="Layer 1"><g id="ftsWOx"><path d="M148.565,54V66a30.215,30.215,0,0,1-5.276,12.617c-2.5,3.417-1.817,7.848-.941,11.614,3.488,15.008.81,29.707-1.5,44.465-1.358,8.676-2.975,17.308-4.03,26.031-.683,5.654-2.009,11.111-5.312,15.9-2.91,4.938-7.355,6.9-12.941,6.8-3.482-.062-6.967,0-10.45,0-10.08-.008-12.638-1.718-16.5-11a32.873,32.873,0,0,1-2.488-12.994c.01-2.076-.4-4.305-3.053-4.172-2.682.133-2.005,2.6-2.072,4.248-.183,4.592.287,9.227-1.023,13.74-1.8,9.92-8.727,16.821-19.141,18.737-9.381,1.726-18.268-.4-26.519-4.705-3.809-1.991-5.662-5.953-6.088-10.358-.157-6.148-1.173-12.23-1.418-18.379-.114-2.873-1.26-4.855-4.786-5.158C8.41,151.965,2.01,145.434.637,128.6c-1.244-15.267-.415-30.531.369-45.789.189-3.656.059-7.317.158-10.974C1.457,61,5.842,52.793,17.688,50.974c1.964-.3,3.89-1.3,5.852-1.152,5.324.4,6.859-2.614,7.338-7.177.789-7.508,3.6-14.426,6.118-21.5C40.14,12.3,46.5,6.973,54.016,2.414a13.527,13.527,0,0,1,7.137-1.9c8.138-.3,16.3.624,24.412-.516h9c13.846,2.132,25.887,8.122,33.65,19.773a227.015,227.015,0,0,0,15.547,21.4C146.828,44.783,147.576,49.489,148.565,54Z" style="fill:#010001"/><path d="M60.479.958A1.146,1.146,0,0,0,60.565,0h25c-3.728,2.094-7.759.723-11.639.936C69.457,1.182,64.963.971,60.479.958Z" style="fill:#232323;fill-rule:evenodd"/><path d="M49.408,21.858c5.453-6.8,11.631-12.419,21.2-11.384,9.655,1.044,19.584-1.153,29,3.041,6.507,2.9,12.074,6.693,16.584,12.927a31.392,31.392,0,0,1-8.639.571,98.063,98.063,0,0,0-33.52,3.145c-6,1.579-10.115,5.88-10.932,11.768-1.56,11.249-1.39,22.45,4.044,33.055,4.923,9.612,13.722,12.7,23.212,14.132,11.762,1.781,23.091-1.74,34.35-4.546,6.086-1.516,5.99-1.9,5.758,4.49.374,8.4-1.557,16.4-3.993,24.369-2.934,9.594-9.685,14.449-19.144,15.953-8.909,1.418-17.841,2.105-26.685-.729a17.963,17.963,0,0,0-5.907-.909c-10.742.346-15.55-6.936-19.431-15.146-7.258-15.352-8.972-32-9.977-48.586-.619-10.215-1.382-20.64,1.162-30.827C47.554,29.432,49.077,25.8,49.408,21.858Z" style="fill:#e752be;fill-rule:evenodd"/><path d="M47.621,33.014c-2.762,17.391-1,34.745,1.19,51.971,1.328,10.452,3.95,20.965,9.18,30.19,3.248,5.729,7.31,11.207,15.985,11.143,8.077-.06,15.985,3.506,24.379,2.743,6.3-.575,12.526-1.21,18.187-4.225a16.578,16.578,0,0,0,7.882-9.889c2.526-7.7,4.832-15.476,5.2-23.671a7.645,7.645,0,0,1,.844-2.22c1.834,13.748,1.25,27.353-.579,41.147-1.542,11.628-6.614,22.655-5.206,34.835.707,6.119-1.653,7.894-7.773,8.472-2.148.2-4.326.129-6.49.129-7.352.006-10.272-3.017-9.907-10.551.136-2.8.86-5.574,1.11-8.379.148-1.646,1.429-1.529,2.378-2.062,3.041-1.711,6.059-3.465,9.031-5.289a29.474,29.474,0,0,0,3.012-2.5c-2.953-1.15-5.431.07-7.894.1-8.5.111-16.955.035-25.342-1.731-6.961-1.465-9.338.613-10.7,7.523-1.283,6.485-.743,12.924-.447,19.379a6.446,6.446,0,0,1-2.75,5.94,21.348,21.348,0,0,1-23.865,1.974,4.024,4.024,0,0,1-2.227-3.476c-4.427-32.918-4.835-66-3.768-99.1.25-7.739-1.5-15.67,1.433-23.256.293-.76.689-1.481,1.037-2.221,1.821-4.653,1.332-9.8,3.078-14.468C45.121,34.1,44.912,31.791,47.621,33.014Z" style="fill:#a728b3;fill-rule:evenodd"/><path d="M28.422,74.034c.045,15.624-.006,31.249.185,46.87.071,5.807.637,11.614,1.12,17.407.21,2.521-.52,3.473-3.219,3.6-8.772.407-12.7-3.25-14.16-12-2.975-17.794-.681-35.477.348-53.2a6.141,6.141,0,0,1,.735-1.795c3.475-.274,6.831-1.314,10.308-1.6C25.379,73.179,27.041,72.6,28.422,74.034Z" style="fill:#a628b2;fill-rule:evenodd"/><path d="M138.627,54.954c1.711,6.421-1.25,13.3-8.363,16.717-12.006,5.77-24.614,9.154-38.11,6.189-7.134-1.567-12.8-5.8-17.212-11.293-5.287-6.58-3.4-21.4,2.8-26.382,2.209,1.124,2.522,3.356,3.13,5.4,3.634,12.223,8.78,16.1,21.6,16.036,8.457-.046,16.83-1.2,25.213-2.193C131.77,58.943,134.967,56.412,138.627,54.954Z" style="fill:#4b646e;fill-rule:evenodd"/><path d="M138.627,54.954c-2.455,4.529-7.092,5.52-11.4,6.032a211.529,211.529,0,0,1-27.28,1.93c-10.7-.118-16.989-4.828-19.866-15.13-.713-2.552-1.556-5.068-2.34-7.6A127.115,127.115,0,0,1,96.1,36.857c1.762-.565,3.15-.217,3.937,1.6.338,1.856-.966,3.088-1.74,4.525-1.705,3.166-.605,5.448,2.707,5.9a150.441,150.441,0,0,0,23.33,1.825c3.406-.071,3.7-2.815,4.8-4.943.963-1.056,2-1.766,3.414-.754C136.117,47.379,137.813,50.9,138.627,54.954Z" style="fill:#98c7dd;fill-rule:evenodd"/><path d="M28.422,74.034c-4.1.708-8.412.354-12.281,2.214-1.673.8-2.383.28-2.709-1.334.139-1.311.209-2.635.431-3.933C15.3,62.633,19.477,59.951,27.8,61.72c2.1.448,1.591,1.787,1.511,2.955C29.1,67.8,28.728,70.915,28.422,74.034Z" style="fill:#e453bd;fill-rule:evenodd"/><path d="M99.6,39.108c-.615-1.607-1.936-2.118-3.5-2.251,13.333-2.575,25.621-.476,36.449,8.151l-3.178,1.053c-7.422-3.25-15-5.846-23.252-5.814C103.9,40.255,101.442,41.334,99.6,39.108Z" style="fill:#9cc5cf;fill-rule:evenodd"/><path d="M47.621,33.014c-3.73,2.686-3.418,6.935-3.984,10.759-.334,2.256.01,4.616-2.123,6.211.4-10,3.412-19.27,7.894-28.126C49.744,25.726,49.548,29.508,47.621,33.014Z" style="fill:#9e2e9e;fill-rule:evenodd"/><path d="M99.6,39.108c7.013.179,13.967.125,20.908,2.068a25.1,25.1,0,0,1,8.865,4.885c.623,4.182-.847,6.315-5.4,5.969-7.363-.56-14.8-.509-22.1-1.487-6.911-.927-7.9-4.831-3.165-10.248C99.03,39.924,99.3,39.505,99.6,39.108Z" style="fill:#fbfdfd;fill-rule:evenodd"/></g></g></g></svg>