<svg xmlns="http://www.w3.org/2000/svg" viewBox="0 0 148.619 193.615"><title>Asset 5</title><g id="Layer_2" data-name="Layer 2"><g id="Layer_1-2" data-name="Layer 1"><g id="dTiyoP"><path d="M148.619,54.913v12a30.176,30.176,0,0,1-5.277,12.616c-2.5,3.418-1.817,7.849-.942,11.614,3.489,15.008.812,29.708-1.5,44.465-1.358,8.676-2.976,17.308-4.03,26.031-.684,5.654-2.009,11.111-5.312,15.9-2.911,4.938-7.355,6.9-12.941,6.8-3.482-.062-6.967,0-10.45,0-10.08-.007-12.638-1.716-16.5-10.992a32.882,32.882,0,0,1-2.488-13c.01-2.076-.4-4.3-3.052-4.174-2.684.133-2.007,2.6-2.074,4.246-.184,4.594.288,9.229-1.023,13.743-.383,12.058-10.52,16.515-19.1,18.609-9.241,2.256-18.209-.277-26.475-4.52-3.828-1.963-5.689-5.908-6.16-10.3-.082-6.158-1.194-12.238-1.385-18.4-.088-2.813-1.038-5.506-4.657-5.182-6.9.618-12.9-1.265-17.651-6.322C2.79,142.929,1.457,136.194.8,129.632c-1.526-15.25-.541-30.549.255-45.821.191-3.66.1-7.322.182-10.981.248-10.7,4.575-19.1,16.5-20.909,1.311-.2,2.581-.657,3.888-.911,8.316-1.61,8.438-1.589,9.65-9.842,1.4-9.553,4.445-18.758,9.8-26.5C46.683,6.563,54.541.3,65.444.455,75.918.6,86.593-1.036,96.822,1.138c16.264,3.458,29.734,11.483,36.344,27.93a10.119,10.119,0,0,0,3.076,4.459A31.826,31.826,0,0,1,148.619,54.913Z" style="fill:#000001"/><path d="M49.444,22.772c5.452-6.8,11.62-12.424,21.2-11.338,9.018,1.023,18.231-1.088,27.136,2.307a40.217,40.217,0,0,1,18.8,13.868,67.793,67.793,0,0,1-8.093.353,105.863,105.863,0,0,0-33.548,2.9c-6.543,1.6-10.881,5.86-11.795,12.083-1.623,11.067-1.432,22.171,3.924,32.575C72.748,86.559,82.925,89.608,93.99,90.3c10.545.66,20.785-2.158,30.9-4.84,5.93-1.573,5.846-1.889,5.676,4.472.59,8.987-1.854,17.432-4.6,25.828-2.8,8.554-9.245,12.925-17.6,14.314-9.168,1.524-18.453,2.559-27.629-.51a16.856,16.856,0,0,0-5.893-.926c-10.777.451-15.531-6.882-19.423-15.059-6.171-12.964-8.189-26.94-9.161-41.083-.375-5.462-.812-10.934-1.222-16.386C44.172,44.611,46.528,33.69,49.444,22.772Z" style="fill:#d4dff0;fill-rule:evenodd"/><path d="M49.444,22.772c1.063,7.481-3.03,14.2-3.086,21.574-.153,20.14,1.342,40.116,6.587,59.585a46.814,46.814,0,0,0,11.507,20.628,4.38,4.38,0,0,0,2.934,1.487c10.491,1,20.63,4.926,31.364,3.843a78.507,78.507,0,0,0,11.8-1.633c7.438-1.933,12.255-6.675,14.651-14.2,2.517-7.908,3.442-16.115,5.361-24.123a129.258,129.258,0,0,1-.447,39.627c-1.362,8.191-2.484,16.4-5.129,24.341-1.041,3.129-.166,6.592,0,9.914.394,7.992-1.906,10.426-9.789,10.658-1.663.049-3.33.027-5-.006-7.331-.146-9.908-2.744-9.683-10.181.09-2.965.849-5.9,1.1-8.87.147-1.771,1.532-1.418,2.485-1.837,5.051-2.225,9.276-5.207,11.744-8.444A119.834,119.834,0,0,1,81.015,144c-6.077-1.035-7.843,1.056-8.785,7.027a78.018,78.018,0,0,0-.689,15.9c.4,8.649-3.965,13.772-12.7,14.743a21.836,21.836,0,0,1-8.414-.592c-4.5-1.274-7.069-2.953-7.833-8.709-4.462-33.621-3.811-67.311-3.509-101.086.109-12.217,3.064-23.613,5.03-35.316C44.882,31.4,47.609,27.159,49.444,22.772Z" style="fill:#8394c2;fill-rule:evenodd"/><path d="M28.509,74.914C28,96.4,27.836,117.872,29.794,139.3c.235,2.575-.513,3.427-3.2,3.524-8.973.322-12.72-3.061-14.177-11.978-2.938-17.982-.729-35.872.352-53.793.027-.442.445-.86.681-1.288C18.483,75.758,23.4,73.542,28.509,74.914Z" style="fill:#8293c0;fill-rule:evenodd"/><path d="M138.678,55.869c1.716,6.41-1.231,13.286-8.36,16.711-12,5.768-24.606,9.152-38.1,6.2C85.078,77.21,79.425,72.977,75,67.492c-5.274-6.537-3.393-21.389,2.773-26.381,2.316,1.723,2.8,4.386,3.576,6.911C84.525,58.312,90.256,62.4,101.087,62.6c6.979.13,13.842-1.072,20.784-1.336C127.9,61.033,133.454,58.849,138.678,55.869Z" style="fill:#4a646e;fill-rule:evenodd"/><path d="M138.678,55.869c-2.455,4.528-7.087,5.481-11.4,6.042A199.869,199.869,0,0,1,99.5,63.816c-9.877-.1-16.248-4.773-19.065-14.173-.855-2.854-1.77-5.688-2.658-8.532,10.025-2.089,19.974-5.065,30.344-4.282,7.777.587,15.355,2.476,22,6.817C134.52,46.524,137.837,50.386,138.678,55.869Z" style="fill:#98c7dc;fill-rule:evenodd"/><path d="M28.509,74.914c-4.287,1.668-9.166.237-13.369,2.664-1.2.691-1.325-.99-1.693-1.813.119-1.144.188-2.3.364-3.432,1.358-8.74,5.849-11.7,14.447-9.806,1.978.436,1.217,1.657,1.157,2.577C29.2,68.38,28.824,71.644,28.509,74.914Z" style="fill:#d3ddee;fill-rule:evenodd"/><path d="M117.55,52.912c-3.995.953-9.183-1.665-14.7-1.2-3.239.274-7.169-1.194-6.925-5.389.21-3.593,2.715-5.707,6.9-6.134,6.869-.7,13.319,1.011,19.852,2.365a10.3,10.3,0,0,1,5.079,3.026c1.383,1.4,2.319,2.821,1.563,4.857s-2.234,2.646-4.311,2.5C123.022,52.806,121.017,52.912,117.55,52.912Z" style="fill:#fbfdfc;fill-rule:evenodd"/></g></g></g></svg>